<?xml version="1.0" encoding="UTF-8"?>
<svg id="a" data-name="Layer 1" xmlns="http://www.w3.org/2000/svg" viewBox="0 0 387.11 422.86">
  <defs>
    <style>
      .b {
        fill: #f0b683;
      }

      .b, .c, .d, .e, .f, .g, .h, .i, .j, .k {
        stroke-width: 0px;
      }

      .c {
        fill: #020202;
      }

      .d {
        fill: #f2d6a9;
      }

      .e {
        fill: #f4d8ab;
      }

      .f {
        fill: #e9b17f;
      }

      .g {
        fill: #edb582;
      }

      .h {
        fill: #efb582;
      }

      .i {
        fill: #eeb683;
      }

      .j {
        fill: #f4d8ac;
      }

      .k {
        fill: #efb783;
      }
    </style>
  </defs>
  <g>
    <path class="j" d="m105.48,164.3c-3.04-2.65-5.25-6.22-8.95-8.13.05-.9.1-1.8.14-2.7,4.73-7.99,4.07-13.55-2.39-20.02-4.98-4.98-9.96-9.97-14.93-14.96,8.84-19.07,7.53-37.03-5.66-53.82-2.11-2.69-3.56-3.1-5.77-.28-1.76,2.25-4.73,3.94-5.55,6.42-.69,2.08,2.62,3.75,3.94,5.78,8.07,12.42,8.27,32.27-6.3,45.16-2.91,2.58-2.76,4.12.01,6.73,7.03,6.62,13.72,13.61,20.57,20.43,2.73,2.72,3.75,5.69,1.61,9.24-2.83-.86-5.06-2.54-7.14-4.64-13.1-13.18-26.28-26.28-39.39-39.47-9.06-9.11-14.49-20.16-17.56-32.56-2.1-8.51-1.76-17.07-1.4-25.66,3.72-12.45,11.3-22.05,21.36-30.12,21.39-17.18,56.85-16.91,77.36,1.32,18.69,16.62,35.57,35.11,53.39,52.63,3.96,3.9,3.98,8.16.55,11.37-3.28,3.07-7.05,2.72-10.98-1.18-7.39-7.33-14.72-14.71-22.08-22.06-6.39-6.39-6.23-6.23-12.75-.13-2.8,2.61-2.26,3.94.17,6.35,17.78,17.57,35.41,35.29,53.07,52.98,1.32,1.32,2.68,2.68,3.67,4.24,2.07,3.26,1.47,6.4-1.29,8.96-2.78,2.57-5.94,2.77-9.04.53-1.28-.92-2.36-2.12-3.49-3.24-13.39-13.38-26.77-26.77-40.15-40.15-6.47-6.47-6.36-6.36-13.06.09-2.36,2.28-2.29,3.48.01,5.75,17.98,17.78,35.81,35.7,53.69,53.59,1.22,1.22,2.52,2.43,3.46,3.86,1.97,3.04,1.61,6.1-.85,8.68-2.59,2.73-5.75,3.23-8.98,1.2-1.45-.91-2.65-2.22-3.88-3.45-16.67-16.64-33.31-33.3-49.97-49.95-6.56-6.56-6.42-6.42-13.06-.11-2.6,2.47-2.2,3.78.13,6.06,14.81,14.61,29.48,29.37,44.18,44.09,1.42,1.42,3.15,2.69,3.73,4.7.99,3.4.1,6.29-2.89,8.35-3.03,2.08-6.15,1.86-8.73-.55-5.17-4.83-10.12-9.89-15.15-14.88q-4.86-4.82-9.68-.49l.02.02ZM37.09,85.76c-5.74,5.92-5.76,4.19-.09,10.05.4.42.88.77,1.21,1.23,2.07,2.88,3.86,2.45,6.13-.03,7.71-8.43,8.17-4.91-.24-13.79-1.71-1.81-3.04-1.78-4.57.07-.74.88-1.62,1.64-2.43,2.46h0Z"/>
    <path class="c" d="m96.68,153.46c-.04.9-.1,1.8-.14,2.7-2.09,16.04-18.07,22.61-29.4,16.73-2.59-1.34-4.88-3.03-6.93-5.08-12.36-12.36-24.77-24.68-37.08-37.1C-3.93,103.44-7.59,63.69,13.96,31.91,36.3-1.04,85.39-10.17,118.07,12.54c5.1,3.56,9.84,7.54,14.23,11.95,14.79,14.84,29.62,29.63,44.43,44.45,12.17,12.17,10.89,25.9-3.62,35.72,5.03,5.03,10.09,9.95,14.99,15.02,8.28,8.57,8.87,19.56,1.77,28.54-2.06,2.6-6.55,3.48-7,6.3-.44,2.66,1.94,5.83,2.08,9.06.65,14.52-13.72,25-27.51,19.87-2.54-.94-3.58-.94-5.26,1.63-7.33,11.25-21.25,12.95-31.38,3.82-6.32-5.7-12.1-12-18.18-17.97-1.29-1.26-1.6-2.2-.1-3.48,1.09-.93,1.99-2.08,2.97-3.13q4.83-4.34,9.68.49c5.02,4.99,9.98,10.05,15.15,14.88,2.58,2.4,5.7,2.63,8.73.55,2.99-2.06,3.88-4.95,2.89-8.35-.59-2-2.31-3.27-3.73-4.7-14.7-14.72-29.37-29.48-44.18-44.09-2.32-2.29-2.73-3.6-.13-6.06,6.64-6.3,6.51-6.45,13.06.11,16.66,16.66,33.3,33.3,49.97,49.95,1.22,1.22,2.43,2.54,3.88,3.45,3.24,2.04,6.4,1.54,8.98-1.2,2.46-2.58,2.83-5.64.85-8.68-.93-1.43-2.24-2.64-3.46-3.86-17.87-17.89-35.71-35.81-53.69-53.59-2.3-2.28-2.38-3.48-.01-5.75,6.7-6.45,6.59-6.56,13.06-.09,13.39,13.39,26.77,26.77,40.15,40.15,1.12,1.12,2.21,2.32,3.49,3.24,3.1,2.24,6.26,2.04,9.04-.53,2.77-2.56,3.35-5.7,1.29-8.96-.99-1.56-2.35-2.92-3.67-4.24-17.65-17.69-35.29-35.41-53.07-52.98-2.43-2.41-2.96-3.73-.17-6.35,6.51-6.1,6.36-6.26,12.75.13,7.36,7.36,14.69,14.73,22.08,22.06,3.94,3.9,7.7,4.26,10.98,1.18,3.42-3.21,3.42-7.48-.55-11.37-17.81-17.53-34.7-36.02-53.39-52.63-20.52-18.24-55.98-18.51-77.36-1.32-10.05,8.08-17.64,17.67-21.36,30.12-7.22,21.14-4.12,41.09,9.58,58.3,13.12,16.47,29.29,30.28,44.18,45.19,4.05,4.05,7.89,3.4,11.72-1.17,2.14-3.55,1.12-6.52-1.61-9.24-6.85-6.81-13.54-13.8-20.57-20.43-2.77-2.61-2.93-4.15-.01-6.73,14.56-12.9,14.37-32.74,6.3-45.16-1.32-2.04-4.63-3.7-3.94-5.78.82-2.47,3.79-4.17,5.55-6.42,2.21-2.82,3.66-2.41,5.77.28,13.19,16.8,14.5,34.76,5.66,53.82-.45.73-.77,1.58-1.36,2.16-3.02,2.96-2.13,5.24.8,7.76,3.27,2.81,6.1,6.14,9.25,9.1,4.66,4.38,7.9,9.47,8.65,15.94v-.02Z"/>
    <path class="h" d="m82.2,158.16c-3.83,4.57-7.68,5.22-11.72,1.17-14.88-14.92-31.05-28.71-44.18-45.19-13.71-17.21-16.81-37.15-9.58-58.3-.37,8.6-.7,17.16,1.4,25.66,3.07,12.4,8.5,23.45,17.56,32.56,13.1,13.18,26.3,26.27,39.39,39.47,2.08,2.09,4.32,3.78,7.14,4.64h0Z"/>
    <path class="g" d="m96.68,153.46c-.74-6.48-3.99-11.57-8.65-15.94-3.16-2.96-5.97-6.29-9.25-9.1-2.93-2.52-3.82-4.79-.8-7.76.59-.59.92-1.43,1.36-2.16,4.98,4.98,9.95,9.98,14.93,14.96,6.46,6.46,7.13,12.02,2.39,20.02h0Z"/>
  </g>
  <g>
    <path class="c" d="m349.24,144.91c-.92.91-.71,2.1-.85,3.23-.58,4.69-2.34,8.81-5.8,12.15-3.4,3.29-6.68,6.72-10.08,10.04-9.38,9.18-24.64,7.3-31.42-3.91-1.12-1.86-1.8-2.73-4.4-1.69-12.34,4.95-24.93-1.93-27.57-14.89-.42-2.06-.93-2.99-3.24-3.43-8.91-1.7-14.42-7.2-16.29-16.08-.42-2.02-.88-2.99-3.23-3.45-16.2-3.15-22.15-21.49-11.14-33.91,5.16-5.83,5.34-6.01-.47-11.33-3.18-2.91-3.55-4.63-.16-7.87,13.28-12.71,25.88-26.14,39.39-38.59,21.71-20.02,57.72-22.05,82.2-5.31,31.86,21.81,40.28,62.3,19.77,95.09-3.77,6.02-8.73,10.98-13.96,15.69-2.03-2.03-3.93-4.21-6.14-6.03-2.55-2.1-2.64-3.57-.09-5.94,10.35-9.62,16.36-21.5,17.97-35.63,2.85-25.04-13.66-51.23-36.54-57.77-16.35-7.33-41.45-2.99-54.99,9.92-10.37,9.89-20.32,20.23-30.54,30.28-1.72,1.69-1.78,2.73-.03,4.47,10.58,10.49,21.08,21.08,31.59,31.64.6.6,1.16,1.29,2.13,1.29,3.91,1.94,7.46,1.39,9.54-1.5,2.19-3.04,1.9-6.81-.94-9.74-4.4-4.52-8.9-8.93-13.35-13.4-6.06-6.06-5.91-5.91-.18-12.07,2.47-2.65,4.02-2.82,6.89-.5,11.36,9.17,27.29,9.95,39.72,2.37,2.36-1.44,4.28-4.94,6.92-4.15,2.42.73,4.02,3.92,6.23,5.73,2.54,2.07,1.96,3.45-.31,5.25-8.79,6.98-18.65,10.97-29.93,11.32-1.05.03-2.31-.54-3.25.9,2.5,2.39,1.23,6.35,3.65,8.88,10.7,1.91,16.86,8.35,18.86,18.93-.31.76-.03.88.63.58,6.32,1.08,11.44,4.05,15.32,9.24,2.3,3.07,2.21,7.01,4.08,10.2Zm-104.06-43.1c-3.4,2.88-3.03,6.25-.97,9.57,1.88,3.01,5.56,3.47,9.46,1.54,7.21-4.64,7.29-5.19,1.69-10.79l-.6-.6c-3.32-3.32-6.52-3.22-9.59.29h0Zm27.44,30.97c3.4-1.26,5.92-3.98,7.13-6.92.67-1.63-3.44-2.32-4.8-4.16-.51-.68-1.33-1.13-1.8-1.83-2.55-3.83-4.97-3.3-7.38.13-.33.47-.72.88-1.08,1.32-3.3,2.85-3.18,6.33-.97,9.44,2.13,2.99,5.33,3.99,8.89,2.01h0Zm21.29-1.88c-3.14,3.14-6.32,6.25-9.42,9.43-3.26,3.34-3.54,7.81-.77,10.75,2.75,2.93,7.52,3,10.79-.17,6.38-6.18,12.66-12.47,18.84-18.84,3.32-3.42,3.31-7.69.29-10.69-3.09-3.07-7.14-2.95-10.62.42-3.09,2.99-6.09,6.06-9.13,9.11h.01Zm24.12,14.93c-1.72,1.72-3.56,3.34-5.13,5.18-2.45,2.86-2.29,7.2.14,9.82,2.4,2.57,6.96,3.15,9.78.67,3.86-3.39,7.52-7.05,10.93-10.9,2.7-3.06,2.12-7.3-.84-9.98-2.8-2.53-6.68-2.58-9.7.06-1.83,1.59-3.46,3.42-5.18,5.14h0Z"/>
    <path class="j" d="m337.19,35.28c22.88,6.54,39.39,32.73,36.54,57.77-1.6,14.12-7.62,26-17.97,35.63-2.56,2.37-2.47,3.84.09,5.94,2.21,1.82,4.1,4,6.14,6.03-2.75.36-3.16-4.63-6.15-2.96-2.02,1.12-3.5,3.21-5.22,4.86.22-1.09.44-2.19.66-3.29,1.13-5.34-1.19-11.77-5.2-14.37-5.07-3.27-11.28-3.05-16.24.59-.67.3-.94.18-.63-.58,4.65-5.7,3.54-13.85-1.56-18.63-4.49-4.21-12.73-4.24-17.31-.29-2.42-2.53-1.15-6.5-3.65-8.88.94-1.43,2.2-.86,3.25-.9,11.28-.35,21.14-4.33,29.93-11.32,2.26-1.8,2.85-3.18.31-5.25-2.21-1.8-3.81-5-6.23-5.73-2.64-.8-4.56,2.71-6.92,4.15-12.44,7.58-28.37,6.81-39.72-2.37-2.87-2.32-4.42-2.15-6.89.5-5.73,6.15-5.88,6,.18,12.07,4.46,4.46,8.95,8.88,13.35,13.4,2.85,2.93,3.13,6.7.94,9.74-2.08,2.89-5.62,3.44-9.54,1.5-9.19-9.28-18.31-18.63-27.63-27.78-2.33-2.29-2.23-3.64.05-5.85,8.95-8.72,17.58-17.78,26.6-26.42,8.53-8.16,18.6-13.62,30.23-16.29,7.51-1.72,15.01-1.67,22.59-1.26l.02-.02Zm-28.73,22.36c5.84,5.68,4.21,5.68,10,.06.31-.31.57-.66.92-.91,3.24-2.28,2.69-4.21-.05-6.72-7.92-7.22-4.76-7.6-13.12.27-2.12,1.99-2.04,3.46.11,5.18.78.62,1.43,1.4,2.14,2.12h0Z"/>
    <path class="k" d="m329.83,125.47c4.96-3.64,11.18-3.87,16.24-.59,4.02,2.59,6.34,9.03,5.2,14.37-.23,1.09-.45,2.19-.66,3.29-.31.88-.41,1.87-1.37,2.37-1.87-3.19-1.78-7.13-4.08-10.2-3.88-5.18-9.01-8.16-15.32-9.24h-.01Z"/>
    <path class="b" d="m337.19,35.28c-7.57-.4-15.08-.46-22.59,1.26-11.63,2.66-21.7,8.11-30.23,16.29-9.03,8.65-17.65,17.7-26.6,26.42-2.28,2.22-2.39,3.56-.05,5.85,9.32,9.15,18.44,18.5,27.63,27.78-.98,0-1.53-.7-2.13-1.29-10.52-10.55-21-21.15-31.59-31.64-1.75-1.74-1.69-2.78.03-4.47,10.22-10.05,20.17-20.39,30.54-30.28,13.54-12.91,38.65-17.26,54.99-9.92h0Z"/>
    <path class="j" d="m293.92,130.9c3.04-3.04,6.04-6.13,9.13-9.11,3.49-3.37,7.54-3.48,10.62-.42,3.02,3,3.04,7.27-.29,10.69-6.19,6.37-12.47,12.66-18.84,18.84-3.27,3.17-8.04,3.1-10.79.17-2.77-2.94-2.5-7.4.77-10.75,3.1-3.18,6.27-6.29,9.42-9.43h-.01Z"/>
    <path class="j" d="m318.03,145.83c1.72-1.72,3.35-3.54,5.18-5.14,3.02-2.64,6.9-2.59,9.7-.06,2.96,2.67,3.55,6.92.84,9.98-3.4,3.84-7.08,7.51-10.93,10.9-2.82,2.48-7.38,1.9-9.78-.67-2.43-2.62-2.59-6.95-.14-9.82,1.58-1.85,3.42-3.46,5.13-5.18h0Z"/>
    <path class="k" d="m310.34,105.97c4.57-3.95,12.81-3.92,17.31.29,5.1,4.78,6.21,12.93,1.56,18.63-2.01-10.58-8.16-17.02-18.86-18.93h0Z"/>
    <path class="h" d="m264.69,121.32c.37-.44.75-.86,1.08-1.32,2.41-3.43,4.82-3.96,7.38-.13.47.7,1.29,1.15,1.8,1.83,1.37,1.83,5.47,2.53,4.8,4.16-1.21,2.94-3.73,5.67-7.13,6.92.75-1.21,3.25-2.28.44-3.85-3.39-1.9-5.51-5.15-8.38-7.6h0Z"/>
    <path class="i" d="m245.18,101.81c3.07-3.52,6.27-3.61,9.59-.29l.6.6c5.59,5.59,5.51,6.16-1.7,10.8,1.04-1.58.08-2.59-.98-3.63-2.52-2.47-5.01-4.99-7.51-7.48Z"/>
    <path class="d" d="m264.69,121.32c2.86,2.46,4.99,5.7,8.38,7.6,2.8,1.58.31,2.64-.44,3.85-3.57,1.97-6.77.97-8.89-2.01-2.21-3.11-2.33-6.6.97-9.44h-.01Z"/>
    <path class="d" d="m245.18,101.81c2.5,2.5,5,5,7.51,7.48,1.06,1.04,2.03,2.04.98,3.63-3.92,1.93-7.58,1.47-9.46-1.54-2.07-3.31-2.43-6.69.97-9.57Z"/>
  </g>
  <g>
    <path class="c" d="m180.05,257.82c-4.42,1.89-6,0-6.94-4.36-1.8-8.39-4.25-16.63-6.37-24.95-2.97-11.68,3.16-22.68,14.25-25.61,10.81-2.86,21.65,3.72,24.72,15.16,4.67,17.41,9.24,34.85,13.86,52.28.25.95.62,1.87,1.25,3.8,3.46-12.95,6.68-24.97,9.9-36.99,1.73-6.5,3.38-13.02,5.2-19.49,3.15-11.2,13.86-17.58,24.55-14.73,10.79,2.87,17.25,13.62,14.4,24.72-5.74,22.45-11.65,44.87-17.73,67.24-1.01,3.69-.27,4.52,3.32,4.3,4.15-.26,8.33.03,12.51-.1,2-.07,2.73.41,2.71,2.59-.1,18.85.41,37.72-.21,56.56-1.06,32.15-27.95,59.91-59.8,64.08-34.12,4.46-71.4-18.67-77.07-59.85-.37-2.7-.33-5.45-.33-8.2-.03-15.97-.1-31.96,0-47.93.1-14.57,11.44-23.6,25.66-20.38,2.06.47,2.57.09,3.33-1.72,3.08-7.28,8.55-11.66,16.47-12.77,12.28-1.27,22.5,7.71,22.82,20.06.07,2.81,0,5.63,0,8.46,1.86-.3,3.25-.61,4.67-.74,1.79-.16,2.46-.66,1.87-2.71-2.31-7.95-4.41-15.97-6.59-23.95-4.4-16.87-8.76-33.74-13.23-50.59-1.4-5.26-5.13-7.61-9.46-6.29-3.94,1.21-5.63,5.19-4.31,10.25,1.86,7.2,3.75,14.4,5.63,21.59,1.37,5.22-.32,8.65-5.07,10.28h-.02Zm-7.13,77.8c-1.44-1.21-2.3.16-3.27.78-5.65,3.68-11.79,4.12-18.19,2.32v6.51c-1.81,20.45,3.9,37.98,19.85,51.58,16.52,14.08,41.72,17.14,59.46,7.22.92-.36,1.92-.58,2.76-1.08,18.43-10.9,28.39-27.01,29.06-48.48.36-11.61.07-23.24.07-34.86,0-5.17-2.57-7.59-7.72-7.28-13.79-.04-27.58-.1-41.38-.15-2.32,0-4.21.93-5.55,2.77-1.62,2.24-2,4.68-.83,7.3,1.34,2.98,3.81,4.33,6.84,4.41,6.03.16,12.07.1,18.11.1,9.97,0,9.9,0,9.42,10.23-.1,2.23-.81,2.82-3,3-15.77,1.29-28.1,12.41-31.28,27.99-.91,4.48-3.66,6.72-8.24,6.72-3.95,0-5.72-1.94-5.3-5.83.06-.57.18-1.14.28-1.7,1.84-10.83,6.82-20,14.86-27.68-3.17-1.59-6.17-3.09-9.17-4.58-2.84,1.54-5.51,3.33-8.71,4.26-6.72,1.93-12.36-.88-18.08-3.57h0Zm71.5-44.02c5.83-21.84,11.67-43.67,17.47-65.53,1.4-5.31-.43-9.38-4.54-10.43-4.51-1.16-7.83,1.35-9.36,7.06-1.59,5.95-3.2,11.88-4.75,17.83-4.44,17.02-8.85,34.04-13.28,51.06-1.89,4.96-.22,7.44,5.02,7.44h.42c4.9,0,7.9-2.48,9.01-7.43h0Zm-65.49,13.75c0,4.59-.07,9.18.02,13.77.09,4.24,2.85,7.23,6.71,7.5,4.02.28,7.62-2.54,7.74-6.94.27-9.46.28-18.94-.02-28.39-.14-4.47-3.56-7.01-7.82-6.74-3.99.25-6.53,3.03-6.63,7.47-.09,4.45-.02,8.9-.02,13.34h0Zm-27.63,7.01c0,2.45-.1,4.9.03,7.34.2,3.76,2.84,6.5,6.43,6.88,3.64.38,6.96-1.66,7.6-5.47.99-5.81,1.09-11.76-.08-17.55-.8-3.95-3.85-5.57-7.79-5.1-3.8.45-5.88,2.8-6.16,6.56-.17,2.44-.03,4.89-.04,7.34h0Z"/>
    <path class="j" d="m180.05,257.82c4.76-1.62,6.45-5.05,5.07-10.28-1.88-7.19-3.76-14.39-5.63-21.59-1.31-5.06.38-9.05,4.31-10.25,4.33-1.33,8.07,1.02,9.46,6.29,4.47,16.85,8.83,33.73,13.23,50.59-3.11-2.55-6.31-5.09-10.16-6.32-4.23-1.36-8.49-3.59-13.14-1.39-1.64-2.09-.11-5.6-3.16-7.07h0Z"/>
    <path class="k" d="m183.21,264.88c4.65-2.2,8.91.03,13.14,1.39,3.84,1.23,7.04,3.77,10.16,6.32,2.18,7.99,4.28,16,6.59,23.95.6,2.06-.08,2.55-1.87,2.71-1.41.13-2.81.43-4.67.74,0-2.84.06-5.65,0-8.46-.3-12.35-10.53-21.32-22.82-20.06,1.16-2.31-.8-4.35-.53-6.59h0Z"/>
    <path class="j" d="m230.78,404.03c-17.73,9.92-42.95,6.86-59.46-7.22-15.95-13.59-21.66-31.13-19.85-51.58,6.24,3.04,12.71,2.19,16.99-2.07,1.93-1.92,2.13-4.96,4.47-6.56,1.6,6.93,6.64,10.51,14.54,10.34,6.5-.15,10.87-4.42,12.25-12,2.99,1.5,5.98,2.99,9.17,4.58-8.05,7.68-13.03,16.85-14.86,27.68-.1.56-.22,1.13-.28,1.7-.42,3.89,1.34,5.83,5.3,5.83,4.58,0,7.33-2.24,8.24-6.72,3.17-15.58,15.51-26.7,31.28-27.99,2.19-.18,2.9-.77,3-3,.49-10.23.56-10.22-9.42-10.23-6.04,0-12.07.07-18.11-.1-3.04-.09-5.51-1.42-6.84-4.41-1.17-2.63-.79-5.06.83-7.3,1.34-1.85,3.23-2.78,5.55-2.77,13.79.05,27.58.1,41.37.15,0,14.5-.13,29.01.04,43.51.11,8.96-2.17,17.23-5.93,25.24-4.28,9.11-10.88,16.34-18.29,22.95h.02Zm3.39-22.57c8.11-.12,6.91,1.05,7.03-7.13,0-.29-.03-.58,0-.86.62-3.87-.82-5.2-4.88-5.08-9.12.29-9.01.07-9.02,9.17,0,2.94.76,4.34,3.86,3.92.99-.13,2-.02,3.01-.02Z"/>
    <path class="j" d="m229.97,291.59c4.42-17.02,8.84-34.04,13.28-51.06,1.55-5.95,3.17-11.89,4.75-17.83,1.53-5.72,4.84-8.22,9.36-7.06,4.11,1.06,5.95,5.13,4.54,10.43-5.8,21.85-11.65,43.68-17.47,65.53h-14.46,0Z"/>
    <path class="k" d="m230.78,404.03c7.41-6.6,14.01-13.83,18.29-22.95,3.76-8,6.04-16.28,5.93-25.24-.18-14.5-.05-29.01-.04-43.51,5.15-.32,7.72,2.11,7.72,7.28,0,11.62.29,23.25-.07,34.86-.67,21.47-10.62,37.59-29.06,48.48-.84.49-1.84.72-2.76,1.08h0Z"/>
    <path class="j" d="m178.93,305.33c0-4.45-.07-8.9.02-13.34.09-4.44,2.63-7.22,6.63-7.47,4.26-.26,7.68,2.28,7.82,6.74.29,9.46.29,18.94.02,28.39-.12,4.4-3.72,7.22-7.74,6.94-3.86-.27-6.63-3.26-6.71-7.5-.1-4.59-.02-9.18-.02-13.77h0Z"/>
    <path class="e" d="m151.31,312.35c0-2.45-.14-4.9.03-7.34.28-3.77,2.36-6.11,6.16-6.56,3.94-.47,6.99,1.15,7.79,5.1,1.17,5.79,1.07,11.74.08,17.55-.65,3.81-3.96,5.85-7.6,5.47-3.59-.37-6.24-3.11-6.43-6.88-.13-2.44-.03-4.89-.02-7.34h0Z"/>
    <path class="k" d="m199.72,334.93c-1.38,7.58-5.74,11.86-12.25,12-7.9.18-12.95-3.41-14.54-10.34v-.98c5.72,2.69,11.37,5.51,18.08,3.57,3.2-.93,5.87-2.71,8.71-4.26h0Z"/>
    <path class="k" d="m172.93,335.61v.98c-2.33,1.61-2.53,4.65-4.47,6.56-4.28,4.26-10.75,5.1-16.99,2.07v-6.51c6.4,1.8,12.54,1.35,18.19-2.32.97-.63,1.83-2,3.27-.78h0Z"/>
    <path class="f" d="m229.97,291.59h14.46c-1.11,4.95-4.11,7.43-9.01,7.43h-.42c-5.24,0-6.91-2.48-5.02-7.44h0Z"/>
  </g>
</svg>