<?xml version="1.0" encoding="UTF-8"?>
<svg id="a" data-name="Layer 1" xmlns="http://www.w3.org/2000/svg" viewBox="0 0 175.68 255.77">
  <defs>
    <style>
      .b {
        fill: #f5d9ac;
      }

      .b, .c, .d, .e {
        stroke-width: 0px;
      }

      .c {
        fill: #010101;
      }

      .d {
        fill: #edb481;
      }

      .e {
        fill: #efb582;
      }
    </style>
  </defs>
  <path class="b" d="m135.87,71.81c.32,4.64-.79,9.35.67,13.93-.77.69-1.55,1.39-2.32,2.09-10.37,2.66-14.36,7.73-14.37,18.27,0,8.12-.01,16.25-.02,24.37-22.75,8.34-36.33,24.05-39.27,48.5-.47,3.91.38,5.43,4.48,4.93,3.27-.4,7.07.64,9.76-.71,2.26-1.14.92-5.19,1.5-7.93,3.55-16.71,19.57-33.05,41.96-31.69,4.48.27,5.61-1.11,5.48-5.5-.33-11.13-.09-22.29-.11-33.43-.01-4.45,1.58-7.7,6.22-8.85,1.6,3.01,2.05,6.2,2.04,9.6-.07,21.43,0,42.86-.06,64.3-.04,14.81-4.62,28.25-12.23,40.86-5.22,8.65-12.48,15.35-19.78,22.07-13.19,7.12-27.19,8.76-41.97,7.14-31.45-3.43-60.14-32.56-62-64.16-1.69-28.79-.38-57.63-.62-86.44-.05-6.41,3.41-9.9,8.82-9.72,5.18.17,7.96,3.53,7.99,9.92.05,12,.01,23.99.01,35.99,0,10.42,0,10.16,10.29,10.5,4.41.15,5.06-1.37,5.04-5.32-.17-28.82-.1-57.65-.07-86.47,0-2.16,0-4.37.46-6.45.97-4.34,4.02-6.42,8.36-6.25,4.36.17,7.1,2.58,7.8,6.94.29,1.79.2,3.65.2,5.49.01,21.83,0,43.65,0,65.48,0,10.55,0,10.37,10.72,10.57,3.78.07,4.71-.97,4.68-4.7-.16-29.16-.09-58.31-.08-87.47,0-1.99-.07-4.04.33-5.97.87-4.09,3.66-6.28,7.77-6.38,4.34-.11,7.32,2.06,8.3,6.35.44,1.92.35,3.97.35,5.97.02,27.16.01,54.31.01,81.47,0,10.7,0,10.47,10.56,10.74,4.13.11,4.87-1.29,4.84-5.05-.16-23.99-.09-47.98-.07-71.97,0-2.32-.37-4.76.79-6.87,1.96-3.58,5.04-5.21,9.16-4.45,4.17.77,6.53,3.5,6.67,7.56.28,8.15.19,16.32.22,24.48.03,7.89,0,7.89,7.49,8.29Zm-8.28,119.8c9.51-.15,8.12,1.28,8.27-8.12.01-.67-.09-1.35.02-1.99.66-4.04-1.15-5.14-5.02-4.97-13.16.58-10.66-2.66-11.05,11.44-.08,2.87,1.03,3.93,3.79,3.67,1.32-.12,2.66-.02,3.99-.02Z"/>
  <path class="c" d="m134.21,87.82c.77-.7,1.55-1.39,2.32-2.09,14.78-11.37,33.17-3.7,37.62,10.33,1.02,3.21,1.51,6.45,1.51,9.79,0,20.16.07,40.32-.02,60.48-.19,44.31-29.61,79.7-73.1,88.04-45.08,8.65-92.55-23.93-100.68-69.09C.6,178.22-.01,171.11,0,163.94c.04-24.16.01-48.31.02-72.47,0-19.84,12.24-30,32.08-26.17,0-8.21-.11-16.34.02-24.47.23-13.74,8.72-23.18,21.83-24.71,3.8-.44,8.18,2.5,10.85.57,2.52-1.81,3.17-6.34,5.69-9.08,11.31-12.37,31.57-9.19,38.63,6.23,1.3,2.84,2.15,3.69,5.62,2.96,15.15-3.19,27.88,6.77,28.7,22.47.51,9.8.08,19.65.17,29.48.02,2.08-.49,3.1-2.76,2.92-1.65-.13-3.32.08-4.98.13-7.48-.4-7.46-.4-7.49-8.29-.03-8.16.06-16.33-.22-24.48-.14-4.06-2.5-6.79-6.67-7.56-4.12-.76-7.2.87-9.16,4.45-1.15,2.11-.79,4.55-.79,6.87-.02,23.99-.09,47.98.07,71.97.03,3.76-.71,5.16-4.84,5.05-10.55-.27-10.56-.05-10.56-10.74,0-27.16,0-54.31-.01-81.47,0-1.99.09-4.05-.35-5.97-.98-4.3-3.96-6.47-8.3-6.35-4.11.1-6.91,2.29-7.77,6.38-.41,1.93-.33,3.98-.33,5.97-.02,29.16-.08,58.31.08,87.47.02,3.73-.9,4.78-4.68,4.7-10.72-.2-10.72-.02-10.72-10.57,0-21.83,0-43.65,0-65.48,0-1.83.09-3.69-.2-5.49-.7-4.36-3.44-6.77-7.8-6.94-4.34-.17-7.38,1.91-8.36,6.25-.47,2.08-.46,4.3-.46,6.45-.03,28.82-.1,57.65.07,86.47.02,3.95-.63,5.46-5.04,5.32-10.28-.34-10.29-.08-10.29-10.5,0-12,.03-23.99-.01-35.99-.03-6.39-2.8-9.75-7.99-9.92-5.41-.17-8.88,3.31-8.82,9.72.23,28.82-1.08,57.66.62,86.44,1.86,31.6,30.55,60.73,62,64.16,14.78,1.61,28.79-.02,41.97-7.14,23.13-11.35,36.86-30.14,39.72-55.35,2.73-24.13.8-48.57.83-72.87,0-6.61-3.66-9.21-10.51-8.61-4.64,1.15-6.23,4.4-6.22,8.85.03,11.14-.21,22.29.11,33.43.13,4.39-1,5.77-5.48,5.5-22.39-1.36-38.41,14.98-41.96,31.69-.58,2.74.76,6.79-1.5,7.93-2.68,1.35-6.49.31-9.76.71-4.1.5-4.95-1.02-4.48-4.93,2.94-24.45,16.52-40.16,39.27-48.5.96-.23,1.92-.66,2.87-.65,4.88.05,6.01-2.53,5.68-6.98-.37-4.96.04-9.98-.12-14.96-.23-7.37,1.28-14.17,5.95-20.05Z"/>
  <path class="e" d="m149.84,95.79c6.85-.6,10.52,2,10.51,8.61-.03,24.3,1.91,48.73-.83,72.87-2.86,25.21-16.58,44-39.72,55.35,7.31-6.71,14.56-13.42,19.78-22.07,7.61-12.61,12.19-26.05,12.23-40.86.06-21.43-.02-42.86.06-64.3.01-3.4-.44-6.6-2.04-9.6Z"/>
  <path class="d" d="m134.21,87.82c-4.68,5.89-6.18,12.68-5.95,20.05.16,4.99-.26,10,.12,14.96.33,4.44-.79,7.02-5.68,6.98-.96,0-1.92.42-2.87.65,0-8.12.02-16.25.02-24.37,0-10.54,3.99-15.61,14.37-18.27Z"/>
</svg>