<?xml version="1.0" encoding="UTF-8"?>
<svg id="a" data-name="Layer 1" xmlns="http://www.w3.org/2000/svg" viewBox="0 0 158.63 174.57">
  <defs>
    <style>
      .b {
        fill: #f5d9ac;
      }

      .b, .c, .d, .e, .f, .g, .h {
        stroke-width: 0px;
      }

      .c {
        fill: #eeb582;
      }

      .d {
        fill: #010101;
      }

      .e {
        fill: #f2d6a9;
      }

      .f {
        fill: #efb582;
      }

      .g {
        fill: #f0b682;
      }

      .h {
        fill: #efb682;
      }
    </style>
  </defs>
  <path class="d" d="m7.15,73.63c.01-1.49-1.14-2.29-1.94-3.32C1.86,66.01-.06,61.22.03,55.67c.09-5.46-.03-10.93.03-16.4.16-15.13,14.14-26.04,28.81-22.43,2.43.6,3.7.76,4.96-2.21C39.85.53,55.73-4.13,68.45,4.29c2.02,1.34,3.19,1.68,5.44.15,8.65-5.88,17.63-5.89,26.4-.17,1.99,1.3,3.15,1.72,5.44.18,15.77-10.64,35.58-.54,36.73,18.57.54,8.96.55,9.25,9.62,8.85,4.96-.22,6.67.88,6.55,6.29-.47,21.19.21,42.41-.65,63.58-1.38,34.03-29.08,65.04-62.69,71.35C51.53,181.28,11.65,155.13,1.64,111.68-.19,103.7-.2,95.61.23,87.5c3.31,0,6.64.23,9.92-.09,3.79-.37,5.06.76,4.91,4.77-.59,16.28,4.19,30.87,14.4,43.7,18.1,22.74,52.91,30.63,76.9,17.31,19.31-7.35,36.24-31.36,36.75-52.93.39-16.52.07-33.06.21-49.59.02-2.78-.77-3.68-3.62-3.67-17.18.08-34.37,0-51.55-.04-.98,0-2-.11-2.79.68-4.77,1.6-7.21,4.95-6.55,9,.69,4.26,4,7.1,8.71,7.17,7.27.1,14.54.03,21.81.04,9.88,0,9.64,0,9.99,9.7.15,4.17-.98,5.58-5.21,6.03-16.74,1.78-30.36,14.14-34.32,30.46-.75,3.1.54,7.52-2.26,9.03-2.57,1.38-6.48.08-9.75.41-3.76.38-4.41-1.22-4.03-4.53,1.47-12.86,6.26-24.15,15.17-33.63.83-.88,2.32-1.44,1.92-3.38-3.98.09-6.18-4.18-10.22-4.26-10.28,7.17-20.55,6.94-30.81-.06-.37-.87-.69-.74-.99.04-6.03,4.27-12.63,6.02-20.03,4.96-4.38-.63-7.52-3.91-11.64-4.99ZM127.14,23.92c.43-5.12-2.63-7.57-7.01-8.59-3.99-.92-7.36,1.7-8.97,6.46-2.09,9.66-1.71,10.18,7.42,10.18.33,0,.66,0,.98,0q8.12,0,7.58-8.06Zm-47.63-2.88c-1.75,3.8-1.58,8.07-.17,11.45.78,1.88,4.7-.91,7.31-.52.97.14,2.01-.16,2.96.03,5.2,1.04,6.74-1.36,5.91-6.12-.11-.65-.13-1.31-.2-1.96.37-5.01-2.57-7.76-6.91-8.49-4.17-.7-7.6,1.09-8.89,5.61Zm-15.82,18.89c0-5.12.05-10.25-.01-15.37-.07-5.38-3.48-9.25-8.14-9.39-4.63-.14-8.58,3.69-8.66,8.94-.16,10.24-.15,20.49,0,30.73.08,5.5,3.57,8.97,8.48,8.95,5.02-.02,8.23-3.42,8.32-9,.08-4.96.02-9.91.02-14.87Zm-31.84,7.49c0-2.8.18-5.62-.04-8.41-.34-4.33-4-7.74-8.12-7.89-4.05-.14-8.24,3.11-8.52,7.43-.38,5.91-.39,11.88-.03,17.8.29,4.7,4.23,7.68,8.82,7.45,4.35-.22,7.55-3.35,7.86-7.96.19-2.79.03-5.61.03-8.41Z"/>
  <path class="b" d="m106.36,153.19c-23.99,13.32-58.8,5.43-76.9-17.31-10.21-12.82-14.99-27.41-14.4-43.7.15-4.02-1.12-5.14-4.91-4.77-3.28.32-6.61.08-9.92.09,1.95-2.53,6.35,1.2,7.43-2.6.73-2.56.24-5.47.3-8.22.71,1.07,1.43,2.14,2.14,3.22,3.43,5.28,10.57,8.63,15.96,7.48,6.8-1.46,11.68-6.71,12.76-13.73.3-.79.62-.91.99-.04.86,8.44,8.4,14.18,16.46,13.92,7.1-.23,13.84-6.92,14.35-13.87,4.04.09,6.24,4.36,10.22,4.26.4,1.94-1.09,2.49-1.92,3.38-8.91,9.48-13.71,20.77-15.17,33.63-.38,3.31.27,4.91,4.03,4.53,3.27-.33,7.18.97,9.75-.41,2.8-1.5,1.51-5.93,2.26-9.03,3.96-16.32,17.58-28.68,34.32-30.46,4.23-.45,5.36-1.85,5.21-6.03-.34-9.69-.1-9.69-9.99-9.7-7.27,0-14.54.06-21.81-.04-4.71-.06-8.02-2.91-8.71-7.17-.66-4.05,1.78-7.39,6.55-9,15.06.07,30.12.26,45.18.12,3.77-.03,4.78,1.15,4.73,4.81-.19,14.41.16,28.83-.15,43.23-.3,13.61-4.06,26.27-11.37,37.93-4.72,7.52-10.88,13.6-17.39,19.45Zm5.19-41.66c-9.4.13-8.07-1.2-8.2,8.1,0,.5.07,1-.01,1.49-.78,4.5,1.24,5.63,5.52,5.44,12.35-.57,10.08,2.32,10.48-10.92.1-3.35-1.16-4.49-4.31-4.13-1.14.13-2.31.02-3.47.02Z"/>
  <path class="h" d="m38.82,73.65c-1.08,7.01-5.96,12.27-12.76,13.73-5.39,1.16-12.53-2.19-15.96-7.48-.7-1.08-1.42-2.15-2.14-3.22-.47-.97-1.19-1.86-.82-3.05,4.13,1.08,7.26,4.36,11.64,4.99,7.39,1.06,14-.69,20.03-4.96Z"/>
  <path class="g" d="m106.36,153.19c6.5-5.85,12.67-11.92,17.39-19.45,7.31-11.65,11.08-24.31,11.37-37.93.31-14.41-.04-28.82.15-43.23.05-3.67-.96-4.85-4.73-4.81-15.06.14-30.12-.05-45.18-.12.8-.79,1.82-.68,2.79-.68,17.18.03,34.37.12,51.55.04,2.84-.01,3.64.89,3.62,3.67-.14,16.53.18,33.07-.21,49.59-.51,21.57-17.44,45.58-36.75,52.93Z"/>
  <path class="b" d="m63.68,39.94c0,4.96.07,9.92-.02,14.87-.1,5.59-3.31,8.98-8.32,9-4.91.02-8.41-3.45-8.48-8.95-.14-10.24-.15-20.49,0-30.73.08-5.25,4.03-9.08,8.66-8.94,4.66.14,8.07,4,8.14,9.39.07,5.12.01,10.24.01,15.37Z"/>
  <path class="b" d="m31.84,47.43c0,2.8.15,5.62-.03,8.41-.31,4.61-3.51,7.74-7.86,7.96-4.59.23-8.54-2.75-8.82-7.45-.36-5.91-.35-11.89.03-17.8.28-4.32,4.47-7.57,8.52-7.43,4.12.15,7.78,3.56,8.12,7.89.22,2.79.04,5.61.04,8.41Z"/>
  <path class="h" d="m70.62,73.66c-.51,6.95-7.25,13.64-14.35,13.87-8.06.26-15.6-5.48-16.46-13.92,10.26,6.99,20.53,7.23,30.81.06Z"/>
  <path class="f" d="m95.32,23.92c.06.66.09,1.32.2,1.96.83,4.76-.7,7.16-5.91,6.12-.95-.19-1.99.11-2.96-.03-2.61-.38-6.52,2.4-7.31.52-1.41-3.38-1.58-7.66.17-11.45.38,1.6-.79,4.51,2.78,3.5,4.31-1.21,8.69-.29,13.03-.63Z"/>
  <path class="c" d="m127.14,23.92q.54,8.06-7.58,8.06c-.33,0-.66,0-.98,0-9.12,0-9.51-.53-7.42-10.19.44,2.14,2.05,2.18,3.76,2.16,4.07-.04,8.15-.02,12.22-.03Z"/>
  <path class="e" d="m95.32,23.92c-4.34.33-8.72-.58-13.03.63-3.57,1-2.4-1.9-2.78-3.5,1.3-4.52,4.73-6.31,8.89-5.61,4.34.73,7.28,3.48,6.91,8.49Z"/>
  <path class="e" d="m127.14,23.92c-4.07,0-8.15,0-12.22.03-1.71.02-3.32-.01-3.76-2.16,1.62-4.77,4.98-7.38,8.97-6.46,4.39,1.01,7.44,3.47,7.01,8.59Z"/>
</svg>