<?xml version="1.0" encoding="UTF-8"?>
<svg id="a" data-name="Layer 1" xmlns="http://www.w3.org/2000/svg" viewBox="0 0 158.62 254.4">
  <defs>
    <style>
      .b {
        fill: #f5d9ac;
      }

      .b, .c, .d, .e, .f, .g {
        stroke-width: 0px;
      }

      .c {
        fill: #f5d9ab;
      }

      .d {
        fill: #010101;
      }

      .e {
        fill: #efb683;
      }

      .f {
        fill: #e9b17f;
      }

      .g {
        fill: #efb682;
      }
    </style>
  </defs>
  <path class="d" d="m48.23,64.11c-5.1,2.18-6.92-.01-8-5.03-2.08-9.67-4.9-19.18-7.34-28.77-3.43-13.47,3.64-26.15,16.43-29.53,12.46-3.3,24.97,4.29,28.51,17.48,5.39,20.08,10.65,40.19,15.98,60.28.29,1.1.71,2.16,1.44,4.38,3.99-14.93,7.7-28.79,11.41-42.65,2-7.49,3.9-15.01,6-22.47,3.63-12.91,15.98-20.27,28.31-16.99,12.44,3.31,19.89,15.7,16.61,28.51-6.62,25.89-13.43,51.74-20.45,77.53-1.16,4.26-.31,5.21,3.83,4.96,4.79-.3,9.61.04,14.42-.12,2.31-.08,3.15.47,3.13,2.99-.12,21.74.47,43.5-.24,65.22-1.22,37.07-32.23,69.08-68.96,73.89C49.97,258.93,6.98,232.26.44,184.78c-.43-3.11-.38-6.29-.38-9.45-.04-18.42-.12-36.85,0-55.27.11-16.8,13.19-27.21,29.59-23.5,2.38.54,2.96.1,3.84-1.98,3.55-8.4,9.86-13.44,18.99-14.73,14.16-1.46,25.95,8.89,26.31,23.13.08,3.24.01,6.49.01,9.76,2.14-.35,3.75-.7,5.38-.85,2.06-.19,2.84-.76,2.16-3.13-2.66-9.17-5.09-18.41-7.6-27.62-5.07-19.45-10.1-38.91-15.25-58.34-1.61-6.07-5.92-8.78-10.91-7.25-4.54,1.39-6.49,5.99-4.97,11.82,2.15,8.3,4.32,16.6,6.49,24.89q2.37,9.03-5.85,11.85Zm-8.22,89.71c-1.66-1.4-2.65.18-3.77.9-6.51,4.24-13.59,4.75-20.97,2.68v7.51c-2.09,23.58,4.5,43.8,22.89,59.48,19.05,16.23,48.11,19.76,68.56,8.32,1.06-.41,2.21-.67,3.18-1.24,21.25-12.57,32.74-31.14,33.51-55.9.42-13.39.08-26.8.08-40.2q0-8.94-8.9-8.39c-15.9-.05-31.8-.11-47.71-.17-2.68,0-4.86,1.07-6.4,3.19-1.87,2.58-2.31,5.4-.96,8.42,1.54,3.44,4.39,4.99,7.89,5.09,6.95.19,13.92.11,20.88.12,11.5.01,11.42,0,10.86,11.8-.12,2.57-.93,3.25-3.46,3.46-18.18,1.49-32.4,14.31-36.07,32.28q-1.58,7.75-9.5,7.75-6.84,0-6.11-6.72c.07-.66.21-1.31.32-1.96,2.12-12.49,7.86-23.06,17.14-31.92-3.66-1.83-7.12-3.56-10.57-5.28-3.27,1.78-6.35,3.84-10.04,4.91-7.75,2.23-14.25-1.02-20.85-4.12Zm82.45-50.76c6.72-25.18,13.46-50.36,20.15-75.56,1.62-6.12-.5-10.82-5.23-12.03-5.2-1.34-9.03,1.56-10.79,8.14-1.83,6.86-3.69,13.7-5.48,20.56-5.12,19.62-10.21,39.25-15.31,58.88q-3.27,8.58,5.79,8.58c.16,0,.33,0,.49,0q8.47,0,10.39-8.57Zm-75.52,15.85c0,5.29-.08,10.59.02,15.88.1,4.89,3.29,8.34,7.74,8.65,4.64.32,8.79-2.93,8.93-8,.31-10.91.32-21.84-.02-32.74-.16-5.15-4.11-8.08-9.02-7.77-4.6.29-7.53,3.49-7.64,8.61-.1,5.13-.02,10.26-.02,15.38Zm-31.86,8.08c0,2.82-.12,5.65.03,8.46.23,4.34,3.28,7.5,7.42,7.93,4.2.44,8.02-1.91,8.76-6.31,1.14-6.7,1.26-13.56-.09-20.24-.92-4.55-4.44-6.42-8.98-5.88-4.38.52-6.78,3.23-7.1,7.57-.2,2.81-.04,5.64-.05,8.46Z"/>
  <path class="b" d="m48.23,64.11q8.23-2.81,5.85-11.85c-2.17-8.29-4.34-16.59-6.49-24.89-1.51-5.83.44-10.43,4.97-11.82,4.99-1.53,9.3,1.18,10.91,7.25,5.15,19.43,10.18,38.89,15.25,58.34-3.59-2.94-7.28-5.87-11.71-7.29-4.88-1.57-9.79-4.14-15.15-1.6-1.89-2.41-.13-6.46-3.64-8.15Z"/>
  <path class="g" d="m51.88,72.26c5.36-2.54,10.27.03,15.15,1.6,4.43,1.42,8.12,4.35,11.71,7.29,2.51,9.21,4.94,18.45,7.6,27.62.69,2.37-.09,2.94-2.16,3.13-1.63.15-3.24.5-5.38.85,0-3.27.07-6.52-.01-9.76-.35-14.24-12.14-24.58-26.31-23.13,1.34-2.66-.92-5.02-.61-7.6Z"/>
  <path class="b" d="m106.73,232.71c-20.45,11.44-49.52,7.91-68.56-8.32-18.39-15.67-24.98-35.9-22.89-59.48,7.19,3.5,14.65,2.52,19.59-2.39,2.23-2.21,2.46-5.72,5.15-7.57,1.84,7.99,7.66,12.12,16.77,11.92,7.5-.17,12.53-5.1,14.12-13.84,3.45,1.73,6.9,3.45,10.57,5.28-9.28,8.86-15.02,19.43-17.14,31.92-.11.65-.25,1.3-.32,1.96q-.73,6.72,6.11,6.72,7.92,0,9.5-7.75c3.66-17.97,17.89-30.79,36.07-32.28,2.53-.21,3.34-.89,3.46-3.46.57-11.8.65-11.79-10.86-11.8-6.96,0-13.92.08-20.88-.12-3.5-.1-6.35-1.64-7.89-5.09-1.35-3.03-.91-5.84.96-8.42,1.54-2.13,3.73-3.2,6.4-3.19,15.9.06,31.8.11,47.7.17,0,16.72-.15,33.45.05,50.17.13,10.33-2.5,19.87-6.84,29.1-4.94,10.51-12.55,18.84-21.09,26.46Zm3.91-26.02c9.35-.14,7.97,1.21,8.11-8.22,0-.33-.04-.67,0-.99.71-4.46-.94-6-5.63-5.86-10.52.33-10.39.08-10.4,10.57,0,3.39.88,5,4.45,4.52,1.14-.15,2.31-.02,3.47-.02Z"/>
  <path class="b" d="m105.8,103.05c5.1-19.63,10.19-39.25,15.31-58.88,1.79-6.86,3.66-13.71,5.48-20.56,1.76-6.59,5.58-9.48,10.79-8.14,4.74,1.22,6.86,5.91,5.23,12.03-6.69,25.19-13.43,50.37-20.15,75.56-5.56,0-11.11,0-16.67,0Z"/>
  <path class="e" d="m106.73,232.71c8.54-7.61,16.15-15.95,21.09-26.46,4.34-9.23,6.97-18.77,6.84-29.1-.21-16.72-.06-33.45-.05-50.17q8.9-.55,8.9,8.39c0,13.4.33,26.81-.08,40.2-.77,24.76-12.25,43.34-33.51,55.9-.97.57-2.12.83-3.18,1.24Z"/>
  <path class="b" d="m46.94,118.9c0-5.13-.08-10.26.02-15.38.1-5.12,3.03-8.32,7.64-8.61,4.91-.3,8.86,2.63,9.02,7.77.34,10.91.33,21.84.02,32.74-.14,5.07-4.29,8.32-8.93,8-4.45-.31-7.64-3.76-7.74-8.65-.11-5.29-.02-10.59-.02-15.88Z"/>
  <path class="c" d="m15.09,126.99c0-2.82-.16-5.65.04-8.46.32-4.35,2.72-7.05,7.1-7.57,4.54-.54,8.06,1.33,8.98,5.88,1.35,6.68,1.23,13.54.09,20.24-.75,4.39-4.57,6.74-8.76,6.31-4.14-.43-7.19-3.59-7.42-7.93-.15-2.81-.03-5.64-.02-8.46Z"/>
  <path class="g" d="m70.91,153.03c-1.59,8.74-6.62,13.67-14.12,13.84-9.11.21-14.93-3.93-16.77-11.92,0-.38,0-.75,0-1.13,6.6,3.1,13.11,6.35,20.85,4.12,3.69-1.07,6.77-3.12,10.04-4.91Z"/>
  <path class="g" d="m40.02,153.82c0,.38,0,.75,0,1.13-2.69,1.86-2.92,5.36-5.15,7.57-4.94,4.91-12.4,5.88-19.59,2.39,0-2.29,0-4.58,0-7.51,7.38,2.07,14.46,1.56,20.97-2.68,1.12-.73,2.11-2.31,3.77-.9Z"/>
  <path class="f" d="m105.8,103.05c5.56,0,11.11,0,16.67,0q-1.92,8.57-10.39,8.57c-.16,0-.33,0-.49,0q-9.06,0-5.79-8.58Z"/>
</svg>